<svg width="25" height="26" viewBox="0 0 25 26" fill="none" xmlns="http://www.w3.org/2000/svg">
<g clip-path="url(#clip0_2325_829)">
<path d="M12.5 2.58333C18.2437 2.58333 22.9167 7.25625 22.9167 13C22.9167 18.7437 18.2437 23.4167 12.5 23.4167C6.75625 23.4167 2.08333 18.7437 2.08333 13C2.08333 7.25625 6.75625 2.58333 12.5 2.58333ZM12.5 0.5C5.59687 0.5 0 6.09687 0 13C0 19.9031 5.59687 25.5 12.5 25.5C19.4031 25.5 25 19.9031 25 13C25 6.09687 19.4031 0.5 12.5 0.5ZM15.8562 20.2052C21.7583 14.0542 15.201 8.92604 10.6365 12.1781L12.5 14.0417H6.25V7.79167L8.15833 9.7C16.3312 3.37708 25.0458 14.3656 15.8562 20.2052Z" fill="black"/>
</g>
<defs>
<clipPath id="clip0_2325_829">
<rect width="25" height="25" fill="white" transform="translate(0 0.5)"/>
</clipPath>
</defs>
</svg>
