<svg width="24" height="24" viewBox="0 0 24 24" fill="none" xmlns="http://www.w3.org/2000/svg">
<path d="M11.9976 3C7.104 3 2.7072 6.97671 0.174 11.3353C0.0588 11.5397 0 11.7699 0 12C0 12.2301 0.0576001 12.4603 0.1728 12.6647C2.7072 17.0233 7.104 21 11.9976 21C16.9692 21 21.3528 17.0271 23.8344 12.6519C23.9448 12.4513 24 12.225 24 12C24 11.775 23.9448 11.5487 23.8344 11.3481C21.3528 6.97286 16.9692 3 11.9976 3ZM22.0932 12C19.8888 15.7003 16.2168 19.0714 11.9976 19.0714C7.8396 19.0714 4.1592 15.6874 1.9128 12C4.158 8.31257 7.8396 4.92857 11.9976 4.92857C16.2192 4.92857 19.8924 8.30229 22.0932 12ZM12 6.85714C14.6496 6.85714 16.8 9.16114 16.8 12C16.8 14.8389 14.6496 17.1429 12 17.1429C9.3504 17.1429 7.2 14.8389 7.2 12C7.2 9.16114 9.3504 6.85714 12 6.85714ZM12 8.78571C10.344 8.78571 9 10.2257 9 12C9 13.7743 10.344 15.2143 12 15.2143C13.656 15.2143 15 13.7743 15 12C15 10.2257 13.656 8.78571 12 8.78571Z" fill="black" fill-opacity="0.42"/>
</svg>
