<svg width="20" height="24" viewBox="0 0 20 24" fill="none" xmlns="http://www.w3.org/2000/svg">
<path d="M10 0C5.008 0 0 1.242 0 3.144C0 3.55 3.556 21.632 3.633 22.031C4.768 23.344 7.368 24 9.967 24C12.568 24 15.166 23.344 16.302 22.031C16.383 21.627 20 3.563 20 3.149C20 0.676 12.662 0 10 0ZM10 1.86C14.211 1.86 17.625 2.606 17.625 3.527C17.625 4.447 14.211 5.194 10 5.194C5.789 5.194 2.375 4.448 2.375 3.527C2.375 2.606 5.789 1.86 10 1.86ZM14.469 20.999C13.692 21.531 12.051 22 9.967 22C7.886 22 6.246 21.533 5.469 21.002L5.465 20.981C3.913 13.068 3.051 8.612 2.571 6.099C6.121 7.555 13.875 7.554 17.42 6.097C16.552 10.568 14.986 18.419 14.469 20.999ZM6.597 13.581L6.105 13.258L7.929 13.25L8.709 14.917L8.203 14.597C7.48 15.743 7.176 16.361 7.407 17.078C5.584 15.28 5.785 14.896 6.597 13.581ZM7.219 12.277L8 10.859C8.195 10.479 9.251 10.784 9.688 11.758L8.891 13.203L7.219 12.277ZM9.892 17.452H8.163C7.736 17.465 7.491 16.391 8.132 15.537H9.893L9.892 17.452ZM9.95 12.566L10.474 12.277C9.822 11.089 9.43 10.524 8.693 10.379C11.144 9.65 11.286 9.969 12.138 11.36L12.659 11.085L11.869 12.739L9.95 12.566ZM13.009 12.571L13.92 14.045C14.156 14.4 13.374 15.174 12.313 15.08L11.385 13.579L13.009 12.571ZM11.46 17.417L11.456 18L10.428 16.384L11.482 14.914L11.476 15.514C12.83 15.525 13.513 15.459 14 14.884C13.435 17.384 13.058 17.417 11.46 17.417Z" fill="black" fill-opacity="0.42"/>
</svg>
