<svg width="24" height="24" viewBox="0 0 24 24" fill="none" xmlns="http://www.w3.org/2000/svg">
<g clip-path="url(#clip0_2317_989)">
<path d="M12 0C8.69 0 5.709 1.353 3.541 3.522L1.061 1.042L0 8.383L7.437 7.417L4.948 4.929C6.756 3.121 9.247 2 12 2C17.514 2 22 6.486 22 12C22 17.514 17.514 22 12 22C8.128 22 4.771 19.784 3.11 16.557L1.393 17.603C3.405 21.406 7.398 24 12 24C18.627 24 24 18.627 24 12C24 5.373 18.627 0 12 0Z" fill="black" fill-opacity="0.42"/>
</g>
<defs>
<clipPath id="clip0_2317_989">
<rect width="24" height="24" fill="white"/>
</clipPath>
</defs>
</svg>
